<svg width="20" height="20" viewBox="0 0 20 20" fill="none" xmlns="http://www.w3.org/2000/svg">
<path opacity="0.2" d="M1 18L1.5 13.5L6.5 12V9L4.5 7.5V4L7 2.5L10.5 4V6.5L9.5 8.5V12.5L13 13.5L14 15.5V18H1Z" fill="#0F2C55"/>
<path d="M14.1666 17.5V15.8333C14.1666 14.9493 13.8155 14.1014 13.1903 13.4763C12.5652 12.8512 11.7174 12.5 10.8333 12.5H4.16665C3.28259 12.5 2.43474 12.8512 1.80962 13.4763C1.1845 14.1014 0.833313 14.9493 0.833313 15.8333V17.5" stroke="#0F2C55" stroke-width="1.66667" stroke-linecap="round" stroke-linejoin="round"/>
<path d="M7.50002 9.16667C9.34097 9.16667 10.8334 7.67428 10.8334 5.83333C10.8334 3.99238 9.34097 2.5 7.50002 2.5C5.65907 2.5 4.16669 3.99238 4.16669 5.83333C4.16669 7.67428 5.65907 9.16667 7.50002 9.16667Z" stroke="#0F2C55" stroke-width="1.66667" stroke-linecap="round" stroke-linejoin="round"/>
<path d="M19.1665 17.501V15.8344C19.166 15.0958 18.9201 14.3784 18.4676 13.7946C18.0152 13.2109 17.3816 12.794 16.6665 12.6094" stroke="#0F2C55" stroke-width="1.66667" stroke-linecap="round" stroke-linejoin="round"/>
<path d="M13.3335 2.60938C14.0505 2.79296 14.686 3.20996 15.1399 3.79463C15.5937 4.37931 15.84 5.0984 15.84 5.83854C15.84 6.57868 15.5937 7.29777 15.1399 7.88245C14.686 8.46712 14.0505 8.88412 13.3335 9.06771" stroke="#0F2C55" stroke-width="1.66667" stroke-linecap="round" stroke-linejoin="round"/>
</svg>
